<svg width="241" height="72" viewBox="0 0 241 72" fill="none" xmlns="http://www.w3.org/2000/svg">
<g filter="url(#filter0_f_10_17)">
<rect width="227.716" height="30.9552" transform="matrix(0.988311 -0.152453 0.238761 0.971078 5.16785 38.4117)" fill="url(#paint0_linear_10_17)"/>
</g>
<path d="M5.00977 34.4062H10.0371L15.75 52.2129L21.4629 34.4062H26.4902L17.7891 60H13.7109L5.00977 34.4062ZM1.95117 34.4062H7.1543L8.12109 54.0234V60H1.95117V34.4062ZM24.3457 34.4062H29.5664V60H23.3789V54.0234L24.3457 34.4062ZM51.1348 55.2539V60H37.4941V55.2539H51.1348ZM39.6914 34.4062V60H33.5215V34.4062H39.6914ZM49.377 44.5664V49.1543H37.4941V44.5664H49.377ZM51.1875 34.4062V39.1699H37.4941V34.4062H51.1875ZM66.4102 34.4062V60H60.2402V34.4062H66.4102ZM74.1094 34.4062V39.1699H52.7168V34.4062H74.1094ZM85.4297 39.7852L79.1895 60H72.5625L81.9668 34.4062H86.168L85.4297 39.7852ZM90.5977 60L84.3398 39.7852L83.5312 34.4062H87.7852L97.2422 60H90.5977ZM90.3516 50.4551V55.2188H77.2207V50.4551H90.3516ZM116.807 34.4062V39.1699H103.588V34.4062H116.807ZM120.973 34.4062V60H114.803V34.4062H120.973ZM103.166 34.4062H109.301L108.633 47.4141C108.527 49.3828 108.328 51.082 108.035 52.5117C107.742 53.9297 107.35 55.125 106.857 56.0977C106.365 57.0586 105.773 57.8262 105.082 58.4004C104.391 58.9746 103.588 59.3848 102.674 59.6309C101.771 59.877 100.758 60 99.6328 60H98.1387V55.2539L98.8066 55.1836C99.3457 55.125 99.8203 54.9785 100.23 54.7441C100.641 54.498 100.992 54.1348 101.285 53.6543C101.59 53.1738 101.842 52.5586 102.041 51.8086C102.24 51.0586 102.398 50.1504 102.516 49.084C102.645 48.0059 102.732 46.7461 102.779 45.3047L103.166 34.4062Z" fill="white"/>
<path d="M153.432 13.4062V39H147.262V18.1699H138.068V39H131.916V13.4062H153.432ZM168.145 18.7852L161.904 39H155.277L164.682 13.4062H168.883L168.145 18.7852ZM173.312 39L167.055 18.7852L166.246 13.4062H170.5L179.957 39H173.312ZM173.066 29.4551V34.2188H159.936V29.4551H173.066ZM187.656 29.5605L196.85 13.4062H203.02V39H196.85V22.8633L187.656 39H181.486V13.4062H187.656V29.5605ZM194.74 6.51562H198.801C198.801 7.57031 198.531 8.50781 197.992 9.32812C197.465 10.1367 196.715 10.7695 195.742 11.2266C194.77 11.6836 193.621 11.9121 192.297 11.9121C190.293 11.9121 188.705 11.4141 187.533 10.418C186.361 9.41016 185.775 8.10938 185.775 6.51562H189.818C189.818 7.08984 190.006 7.60547 190.381 8.0625C190.756 8.51953 191.395 8.74805 192.297 8.74805C193.199 8.74805 193.832 8.51953 194.195 8.0625C194.559 7.60547 194.74 7.08984 194.74 6.51562ZM228.279 13.4062V39H222.109V18.1699H212.916V39H206.764V13.4062H228.279Z" fill="white"/>
<defs>
<filter id="filter0_f_10_17" x="2.16785" y="0.695801" width="238.445" height="70.7758" filterUnits="userSpaceOnUse" color-interpolation-filters="sRGB">
<feFlood flood-opacity="0" result="BackgroundImageFix"/>
<feBlend mode="normal" in="SourceGraphic" in2="BackgroundImageFix" result="shape"/>
<feGaussianBlur stdDeviation="1.5" result="effect1_foregroundBlur_10_17"/>
</filter>
<linearGradient id="paint0_linear_10_17" x1="114.222" y1="-6.06939e-06" x2="114.222" y2="30.9552" gradientUnits="userSpaceOnUse">
<stop stop-color="#B8B7B7"/>
<stop offset="0.197917" stop-color="#9F9E9E"/>
<stop offset="0.375" stop-color="#636363"/>
<stop offset="0.515625" stop-color="#7A7A7A"/>
<stop offset="0.625" stop-color="#585858"/>
<stop offset="0.854167" stop-color="#B8B7B7"/>
<stop offset="1" stop-color="#B8B7B7"/>
</linearGradient>
</defs>
</svg>
