<svg width="268" height="90" viewBox="0 0 268 90" fill="none" xmlns="http://www.w3.org/2000/svg">
<rect width="268" height="90" fill="black"/>
<g filter="url(#filter0_f_15_187)">
<rect width="227.716" height="30.9552" transform="matrix(0.988311 -0.152453 0.238761 0.971078 18.1678 47.4116)" fill="url(#paint0_linear_15_187)"/>
</g>
<path d="M27.112 69L20.92 48.84H20.776C20.8 49.32 20.836 50.04 20.884 51C20.932 51.96 20.98 52.992 21.028 54.096C21.076 55.176 21.1 56.16 21.1 57.048V69H16.24V43.296H23.656L29.74 62.952H29.848L36.292 43.296H43.708V69H38.632V56.832C38.632 56.016 38.644 55.08 38.668 54.024C38.716 52.968 38.752 51.972 38.776 51.036C38.824 50.076 38.86 49.356 38.884 48.876H38.74L32.116 69H27.112ZM64.9969 69H50.2009V43.296H64.9969V47.76H55.6369V53.412H64.3489V57.876H55.6369V64.5H64.9969V69ZM80.2455 69H74.8095V47.832H67.8255V43.296H87.2295V47.832H80.2455V69ZM104.394 69L102.522 62.88H93.1619L91.2899 69H85.4219L94.4939 43.188H101.154L110.262 69H104.394ZM99.3539 52.332C99.2339 51.924 99.0779 51.408 98.8859 50.784C98.6939 50.16 98.5019 49.524 98.3099 48.876C98.1179 48.228 97.9619 47.664 97.8419 47.184C97.7219 47.664 97.5539 48.264 97.3379 48.984C97.1459 49.68 96.9539 50.352 96.7619 51C96.5939 51.624 96.4619 52.068 96.3659 52.332L94.5299 58.308H101.226L99.3539 52.332ZM133.857 69H128.421V47.832H122.121C121.977 48.936 121.821 50.136 121.653 51.432C121.509 52.728 121.341 54.048 121.149 55.392C120.981 56.712 120.801 57.972 120.609 59.172C120.417 60.348 120.225 61.392 120.033 62.304C119.721 63.792 119.301 65.064 118.773 66.12C118.269 67.176 117.561 67.98 116.649 68.532C115.761 69.084 114.597 69.36 113.157 69.36C112.677 69.36 112.221 69.324 111.789 69.252C111.357 69.18 110.949 69.084 110.565 68.964V64.5C110.877 64.596 111.177 64.68 111.465 64.752C111.777 64.824 112.113 64.86 112.473 64.86C112.953 64.86 113.349 64.704 113.661 64.392C113.973 64.08 114.249 63.552 114.489 62.808C114.729 62.04 114.969 60.984 115.209 59.64C115.329 59.064 115.473 58.248 115.641 57.192C115.809 56.112 116.001 54.852 116.217 53.412C116.457 51.948 116.697 50.364 116.937 48.66C117.177 46.932 117.405 45.144 117.621 43.296H133.857V69Z" fill="white"/>
<path d="M146.24 48V22.296H166.58V48H161.144V26.832H151.676V48H146.24ZM188.796 48L186.924 41.88H177.564L175.692 48H169.824L178.896 22.188H185.556L194.664 48H188.796ZM183.756 31.332C183.636 30.924 183.48 30.408 183.288 29.784C183.096 29.16 182.904 28.524 182.712 27.876C182.52 27.228 182.364 26.664 182.244 26.184C182.124 26.664 181.956 27.264 181.74 27.984C181.548 28.68 181.356 29.352 181.164 30C180.996 30.624 180.864 31.068 180.768 31.332L178.932 37.308H185.628L183.756 31.332ZM218.62 13.836C218.5 15.084 218.152 16.188 217.576 17.148C217 18.084 216.1 18.816 214.876 19.344C213.652 19.872 212.008 20.136 209.944 20.136C207.832 20.136 206.176 19.884 204.976 19.38C203.8 18.852 202.96 18.12 202.456 17.184C201.952 16.248 201.652 15.132 201.556 13.836H206.344C206.464 15.156 206.8 16.032 207.352 16.464C207.904 16.896 208.804 17.112 210.052 17.112C211.084 17.112 211.924 16.884 212.572 16.428C213.244 15.948 213.64 15.084 213.76 13.836H218.62ZM197.92 22.296H202.816V34.716C202.816 35.316 202.804 35.988 202.78 36.732C202.756 37.476 202.732 38.208 202.708 38.928C202.684 39.624 202.66 40.236 202.636 40.764C202.612 41.268 202.588 41.616 202.564 41.808H202.672L214.552 22.296H221.068V48H216.208V35.652C216.208 35.004 216.22 34.296 216.244 33.528C216.268 32.736 216.292 31.98 216.316 31.26C216.364 30.54 216.4 29.916 216.424 29.388C216.472 28.836 216.508 28.476 216.532 28.308H216.388L204.472 48H197.92V22.296ZM227.556 48V22.296H247.896V48H242.46V26.832H232.992V48H227.556Z" fill="white"/>
<defs>
<filter id="filter0_f_15_187" x="15.1678" y="9.6958" width="238.445" height="70.7756" filterUnits="userSpaceOnUse" color-interpolation-filters="sRGB">
<feFlood flood-opacity="0" result="BackgroundImageFix"/>
<feBlend mode="normal" in="SourceGraphic" in2="BackgroundImageFix" result="shape"/>
<feGaussianBlur stdDeviation="1.5" result="effect1_foregroundBlur_15_187"/>
</filter>
<linearGradient id="paint0_linear_15_187" x1="114.222" y1="-6.06939e-06" x2="114.222" y2="30.9552" gradientUnits="userSpaceOnUse">
<stop stop-color="#B8B7B7"/>
<stop offset="0.197917" stop-color="#9F9E9E"/>
<stop offset="0.375" stop-color="#636363"/>
<stop offset="0.515625" stop-color="#7A7A7A"/>
<stop offset="0.625" stop-color="#585858"/>
<stop offset="0.854167" stop-color="#B8B7B7"/>
<stop offset="1" stop-color="#B8B7B7"/>
</linearGradient>
</defs>
</svg>
